<svg width="230" height="144" viewBox="0 0 230 144" version="1.1" xmlns="http://www.w3.org/2000/svg" xmlns:xlink="http://www.w3.org/1999/xlink">
<title>Group 2</title>
<desc>Created using Figma</desc>
<g id="Canvas" transform="translate(256 -2474)">
<g id="Group 2">
<g id="logo  item  business">
<g id="Group">
<g id="TM">
<use xlink:href="#path0_fill" transform="translate(-108.396 2474)" fill="#FF8B03" style="mix-blend-mode:darken"/>
<use xlink:href="#path1_fill" transform="translate(-108.396 2474)" fill="#FF8B03" style="mix-blend-mode:darken"/>
</g>
</g>
</g>
<g id="Group">
<g id="logo  item  logo 0">
<g id="Group">
<g id="Group">
<g id="Vector">
<use xlink:href="#path2_fill" transform="matrix(0.138472 0 0 0.138472 -192 2558.95)" fill="#00A8DE"/>
</g>
<g id="Vector">
<use xlink:href="#path3_fill" transform="matrix(0.138472 0 0 0.138472 -194.28 2552.91)" fill="#00A8DE"/>
</g>
<g id="Vector">
<use xlink:href="#path4_fill" transform="matrix(0.138472 0 0 0.138472 -193.406 2541.92)" fill="#00A8DE"/>
</g>
<g id="Vector">
<use xlink:href="#path5_fill" transform="matrix(0.138472 0 0 0.138472 -183.843 2533.05)" fill="#00A8DE"/>
</g>
<g id="Vector">
<use xlink:href="#path6_fill" transform="matrix(0.138472 0 0 0.138472 -173.498 2533.43)" fill="#39499B"/>
</g>
<g id="Vector">
<use xlink:href="#path7_fill" transform="matrix(0.138472 0 0 0.138472 -165.794 2539.45)" fill="#39499B"/>
</g>
<g id="Vector">
<use xlink:href="#path8_fill" transform="matrix(0.138472 0 0 0.138472 -162.548 2548.19)" fill="#39499B"/>
</g>
<g id="Vector">
<use xlink:href="#path9_fill" transform="matrix(0.138472 0 0 0.138472 -161.911 2558.23)" fill="#39499B"/>
</g>
<g id="Vector">
<use xlink:href="#path10_fill" transform="matrix(0.138472 0 0 0.138472 -163.991 2564.66)" fill="#39499B"/>
</g>
<g id="Vector">
<use xlink:href="#path11_fill" transform="matrix(0.138472 0 0 0.138472 -169.027 2571.24)" fill="#39499B"/>
</g>
<g id="Vector">
<use xlink:href="#path12_fill" transform="matrix(0.138472 0 0 0.138472 -175.02 2576.03)" fill="#39499B"/>
</g>
<g id="Vector">
<use xlink:href="#path13_fill" transform="matrix(0.138472 0 0 0.138472 -183.778 2578.23)" fill="#00A8DE"/>
</g>
<g id="Vector">
<use xlink:href="#path14_fill" transform="matrix(0.138472 0 0 0.138472 -190.455 2578.75)" fill="#00A8DE"/>
</g>
<g id="Vector">
<use xlink:href="#path15_fill" transform="matrix(0.138472 0 0 0.138472 -201.248 2577.12)" fill="#00A8DE"/>
</g>
<g id="Vector">
<use xlink:href="#path16_fill" transform="matrix(0.138472 0 0 0.138472 -209.273 2573.81)" fill="#00A8DE"/>
</g>
<g id="Vector">
<use xlink:href="#path17_fill" transform="matrix(0.138472 0 0 0.138472 -216.561 2568.49)" fill="#00A8DE"/>
</g>
<g id="Vector">
<use xlink:href="#path18_fill" transform="matrix(0.138472 0 0 0.138472 -221.594 2562.86)" fill="#00A8DE"/>
</g>
<g id="Vector">
<use xlink:href="#path19_fill" transform="matrix(0.138472 0 0 0.138472 -224.843 2554.88)" fill="#00A8DE"/>
</g>
<g id="Vector">
<use xlink:href="#path20_fill" transform="matrix(0.138472 0 0 0.138472 -225.995 2549.1)" fill="#00A8DE"/>
</g>
<g id="Vector">
<use xlink:href="#path21_fill" transform="matrix(0.138472 0 0 0.138472 -225.468 2538.35)" fill="#00A8DE"/>
</g>
<g id="Vector">
<use xlink:href="#path22_fill" transform="matrix(0.138472 0 0 0.138472 -222.305 2531.84)" fill="#00A8DE"/>
</g>
<g id="Vector">
<use xlink:href="#path23_fill" transform="matrix(0.138472 0 0 0.138472 -218.525 2523.77)" fill="#00A8DE"/>
</g>
<g id="Vector">
<use xlink:href="#path24_fill" transform="matrix(0.138472 0 0 0.138472 -212.963 2517.58)" fill="#00A8DE"/>
</g>
<g id="Vector">
<use xlink:href="#path25_fill" transform="matrix(0.138472 0 0 0.138472 -206.25 2511.77)" fill="#00A8DE"/>
</g>
<g id="Vector">
<use xlink:href="#path26_fill" transform="matrix(0.138472 0 0 0.138472 -198.451 2507.82)" fill="#00A8DE"/>
</g>
<g id="Vector">
<use xlink:href="#path27_fill" transform="matrix(0.138472 0 0 0.138472 -190.57 2505.04)" fill="#00A8DE"/>
</g>
<g id="Vector">
<use xlink:href="#path28_fill" transform="matrix(0.138472 0 0 0.138472 -182.106 2503.68)" fill="#00A8DE"/>
</g>
<g id="Vector">
<use xlink:href="#path29_fill" transform="matrix(0.138472 0 0 0.138472 -172.291 2503.96)" fill="#39499B"/>
</g>
<g id="Vector">
<use xlink:href="#path30_fill" transform="matrix(0.138472 0 0 0.138472 -165.687 2505.41)" fill="#39499B"/>
</g>
<g id="Vector">
<use xlink:href="#path31_fill" transform="matrix(0.138472 0 0 0.138472 -156.779 2508.59)" fill="#39499B"/>
</g>
<g id="Vector">
<use xlink:href="#path32_fill" transform="matrix(0.138472 0 0 0.138472 -151.275 2512.31)" fill="#39499B"/>
</g>
<g id="Vector">
<use xlink:href="#path33_fill" transform="matrix(0.138472 0 0 0.138472 -144.285 2517.48)" fill="#39499B"/>
</g>
<g id="Vector">
<use xlink:href="#path34_fill" transform="matrix(0.138472 0 0 0.138472 -139.691 2523.29)" fill="#39499B"/>
</g>
<g id="Vector">
<use xlink:href="#path35_fill" transform="matrix(0.138472 0 0 0.138472 -134.867 2530.03)" fill="#39499B"/>
</g>
<g id="Vector">
<use xlink:href="#path36_fill" transform="matrix(0.138472 0 0 0.138472 -132.169 2537.68)" fill="#39499B"/>
</g>
<g id="Vector">
<use xlink:href="#path37_fill" transform="matrix(0.138472 0 0 0.138472 -130.157 2545.9)" fill="#39499B"/>
</g>
<g id="Vector">
<use xlink:href="#path38_fill" transform="matrix(0.138472 0 0 0.138472 -129.601 2553.17)" fill="#39499B"/>
</g>
<g id="Vector">
<use xlink:href="#path39_fill" transform="matrix(0.138472 0 0 0.138472 -129.965 2562.27)" fill="#39499B"/>
</g>
<g id="Vector">
<use xlink:href="#path40_fill" transform="matrix(0.138472 0 0 0.138472 -131.565 2568.29)" fill="#39499B"/>
</g>
<g id="Vector">
<use xlink:href="#path41_fill" transform="matrix(0.138472 0 0 0.138472 -134.136 2576.77)" fill="#39499B"/>
</g>
<g id="Vector">
<use xlink:href="#path42_fill" transform="matrix(0.138472 0 0 0.138472 -137.729 2582)" fill="#39499B"/>
</g>
<g id="Vector">
<use xlink:href="#path43_fill" transform="matrix(0.138472 0 0 0.138472 -142.094 2588.97)" fill="#39499B"/>
</g>
<g id="Vector">
<use xlink:href="#path44_fill" transform="matrix(0.138472 0 0 0.138472 -147.657 2593.56)" fill="#39499B"/>
</g>
<g id="Vector">
<use xlink:href="#path45_fill" transform="matrix(0.138472 0 0 0.138472 -153.281 2598.66)" fill="#39499B"/>
</g>
<g id="Vector">
<use xlink:href="#path46_fill" transform="matrix(0.138472 0 0 0.138472 -160.662 2602)" fill="#39499B"/>
</g>
<g id="Vector">
<use xlink:href="#path47_fill" transform="matrix(0.138472 0 0 0.138472 -167.872 2604.93)" fill="#39499B"/>
</g>
<g id="Vector">
<use xlink:href="#path48_fill" transform="matrix(0.138472 0 0 0.138472 -174.059 2607.22)" fill="#39499B"/>
</g>
<g id="Vector">
<use xlink:href="#path49_fill" transform="matrix(0.138472 0 0 0.138472 -183.239 2608.5)" fill="#00A8DE"/>
</g>
<g id="Vector">
<use xlink:href="#path50_fill" transform="matrix(0.138472 0 0 0.138472 -189.263 2608.97)" fill="#00A8DE"/>
</g>
<g id="Vector">
<use xlink:href="#path51_fill" transform="matrix(0.138472 0 0 0.138472 -199.718 2608.11)" fill="#00A8DE"/>
</g>
<g id="Vector">
<use xlink:href="#path52_fill" transform="matrix(0.138472 0 0 0.138472 -206.678 2606.31)" fill="#00A8DE"/>
</g>
<g id="Vector">
<use xlink:href="#path53_fill" transform="matrix(0.138472 0 0 0.138472 -215.675 2603.58)" fill="#00A8DE"/>
</g>
<g id="Vector">
<use xlink:href="#path54_fill" transform="matrix(0.138472 0 0 0.138472 -222.363 2600.09)" fill="#00A8DE"/>
</g>
<g id="Vector">
<use xlink:href="#path55_fill" transform="matrix(0.138472 0 0 0.138472 -229.798 2595.74)" fill="#00A8DE"/>
</g>
<g id="Vector">
<use xlink:href="#path56_fill" transform="matrix(0.138472 0 0 0.138472 -235.972 2590.82)" fill="#00A8DE"/>
</g>
<g id="Vector">
<use xlink:href="#path57_fill" transform="matrix(0.138472 0 0 0.138472 -241.296 2585.71)" fill="#00A8DE"/>
</g>
<g id="Vector">
<use xlink:href="#path58_fill" transform="matrix(0.138472 0 0 0.138472 -246.316 2579.32)" fill="#00A8DE"/>
</g>
<g id="Vector">
<use xlink:href="#path59_fill" transform="matrix(0.138472 0 0 0.138472 -250.522 2573.61)" fill="#00A8DE"/>
</g>
<g id="Vector">
<use xlink:href="#path60_fill" transform="matrix(0.138472 0 0 0.138472 -253.075 2565.62)" fill="#00A8DE"/>
</g>
<g id="Vector">
<use xlink:href="#path61_fill" transform="matrix(0.138472 0 0 0.138472 -254.828 2559.9)" fill="#00A8DE"/>
</g>
<g id="Vector">
<use xlink:href="#path62_fill" transform="matrix(0.138472 0 0 0.138472 -255.933 2551)" fill="#00A8DE"/>
</g>
<g id="Vector">
<use xlink:href="#path63_fill" transform="matrix(0.138472 0 0 0.138472 -256 2545.53)" fill="#00A8DE"/>
</g>
<g id="Vector">
<use xlink:href="#path64_fill" transform="matrix(0.138472 0 0 0.138472 -255.542 2535.87)" fill="#00A8DE"/>
</g>
<g id="Vector">
<use xlink:href="#path65_fill" transform="matrix(0.138472 0 0 0.138472 -253.886 2529.65)" fill="#00A8DE"/>
</g>
<g id="Vector">
<use xlink:href="#path66_fill" transform="matrix(0.138472 0 0 0.138472 -251.763 2520.88)" fill="#00A8DE"/>
</g>
<g id="Vector">
<use xlink:href="#path67_fill" transform="matrix(0.138472 0 0 0.138472 -248.311 2514.56)" fill="#00A8DE"/>
</g>
<g id="Vector">
<use xlink:href="#path68_fill" transform="matrix(0.138472 0 0 0.138472 -244.786 2506.9)" fill="#00A8DE"/>
</g>
<g id="Vector">
<use xlink:href="#path69_fill" transform="matrix(0.138472 0 0 0.138472 -239.623 2500.67)" fill="#00A8DE"/>
</g>
<g id="Vector">
<use xlink:href="#path70_fill" transform="matrix(0.138472 0 0 0.138472 -234.186 2494.59)" fill="#00A8DE"/>
</g>
<g id="Vector">
<use xlink:href="#path71_fill" transform="matrix(0.138472 0 0 0.138472 -227.898 2489.65)" fill="#00A8DE"/>
</g>
<g id="Vector">
<use xlink:href="#path72_fill" transform="matrix(0.138472 0 0 0.138472 -221.188 2484.98)" fill="#00A8DE"/>
</g>
<g id="Vector">
<use xlink:href="#path73_fill" transform="matrix(0.138472 0 0 0.138472 -213.848 2481.26)" fill="#00A8DE"/>
</g>
<g id="Vector">
<use xlink:href="#path74_fill" transform="matrix(0.138472 0 0 0.138472 -206.405 2478.2)" fill="#00A8DE"/>
</g>
<g id="Vector">
<use xlink:href="#path75_fill" transform="matrix(0.138472 0 0 0.138472 -198.163 2476.02)" fill="#00A8DE"/>
</g>
<g id="Vector">
<use xlink:href="#path76_fill" transform="matrix(0.138472 0 0 0.138472 -190.549 2474.52)" fill="#00A8DE"/>
</g>
<g id="Vector">
<use xlink:href="#path77_fill" transform="matrix(0.138472 0 0 0.138472 -181.632 2474.01)" fill="#00A8DE"/>
</g>
<g id="Vector">
<use xlink:href="#path78_fill" transform="matrix(0.138472 0 0 0.138472 -174.48 2474)" fill="#39499B"/>
</g>
<g id="Vector">
<use xlink:href="#path79_fill" transform="matrix(0.138472 0 0 0.138472 -164.948 2474.98)" fill="#39499B"/>
</g>
<g id="Vector">
<use xlink:href="#path80_fill" transform="matrix(0.138472 0 0 0.138472 -158.903 2476.4)" fill="#39499B"/>
</g>
<g id="Vector">
<use xlink:href="#path81_fill" transform="matrix(0.138472 0 0 0.138472 -149.725 2478.84)" fill="#39499B"/>
</g>
<g id="Vector">
<use xlink:href="#path82_fill" transform="matrix(0.138472 0 0 0.138472 -144.19 2481.48)" fill="#39499B"/>
</g>
<g id="Vector">
<use xlink:href="#path83_fill" transform="matrix(0.138472 0 0 0.138472 -136.097 2485.62)" fill="#39499B"/>
</g>
<g id="Vector">
<use xlink:href="#path84_fill" transform="matrix(0.138472 0 0 0.138472 -130.908 2489.88)" fill="#39499B"/>
</g>
<g id="Vector">
<use xlink:href="#path85_fill" transform="matrix(0.138472 0 0 0.138472 -124.276 2495.08)" fill="#39499B"/>
</g>
<g id="Vector">
<use xlink:href="#path86_fill" transform="matrix(0.138472 0 0 0.138472 -119.702 2500.59)" fill="#39499B"/>
</g>
<g id="Vector">
<use xlink:href="#path87_fill" transform="matrix(0.138472 0 0 0.138472 -114.942 2506.68)" fill="#39499B"/>
</g>
<g id="Vector">
<use xlink:href="#path88_fill" transform="matrix(0.138472 0 0 0.138472 -110.359 2513.23)" fill="#39499B"/>
</g>
<g id="Vector">
<use xlink:href="#path89_fill" transform="matrix(0.138472 0 0 0.138472 -107.172 2519.93)" fill="#39499B"/>
</g>
<g id="Vector">
<use xlink:href="#path90_fill" transform="matrix(0.138472 0 0 0.138472 -103.978 2527.19)" fill="#39499B"/>
</g>
<g id="Vector">
<use xlink:href="#path91_fill" transform="matrix(0.138472 0 0 0.138472 -101.913 2534.29)" fill="#39499B"/>
</g>
<g id="Vector">
<use xlink:href="#path92_fill" transform="matrix(0.138472 0 0 0.138472 -100.134 2542.19)" fill="#39499B"/>
</g>
<g id="Vector">
<use xlink:href="#path93_fill" transform="matrix(0.138472 0 0 0.138472 -99.3533 2549.23)" fill="#39499B"/>
</g>
<g id="Vector">
<use xlink:href="#path94_fill" transform="matrix(0.138472 0 0 0.138472 -99.0189 2557.78)" fill="#39499B"/>
</g>
<g id="Vector">
<use xlink:href="#path95_fill" transform="matrix(0.138472 0 0 0.138472 -99.6973 2564.23)" fill="#39499B"/>
</g>
<g id="Vector">
<use xlink:href="#path96_fill" transform="matrix(0.138472 0 0 0.138472 -100.979 2573.45)" fill="#39499B"/>
</g>
<g id="Vector">
<use xlink:href="#path97_fill" transform="matrix(0.138472 0 0 0.138472 -103.092 2578.74)" fill="#39499B"/>
</g>
<g id="Vector">
<use xlink:href="#path98_fill" transform="matrix(0.138472 0 0 0.138472 -105.938 2586.99)" fill="#39499B"/>
</g>
<g id="Vector">
<use xlink:href="#path99_fill" transform="matrix(0.138472 0 0 0.138472 -109.544 2592.17)" fill="#39499B"/>
</g>
<g id="Vector">
<use xlink:href="#path100_fill" transform="matrix(0.138472 0 0 0.138472 -113.704 2599.22)" fill="#39499B"/>
</g>
</g>
</g>
</g>
</g>
</g>
</g>
<defs>
<path id="path0_fill" d="M 32.3832 7.05422L 20.5762 7.05422L 20.5762 39.2533L 11.807 39.2533L 11.807 7.05422L 0 7.05422L 0 0L 32.3832 0L 32.3832 7.05422Z"/>
<path id="path1_fill" d="M 69.1559 0L 77.5812 0C 79.6828 0 80.7718 1.08089 80.8482 3.24267L 82.3957 39.2533L 74.1423 39.2533L 72.824 6.76978L 71.8497 6.76978L 65.8889 31.0613C 65.5068 32.9197 64.3223 33.8489 62.3353 33.8489L 56.6038 33.8489C 54.6169 33.8489 53.4324 32.9197 53.0503 31.0613L 47.0321 6.76978L 46.0578 6.76978L 44.9115 39.2533L 36.6581 39.2533L 38.091 3.24267C 38.2056 1.08089 39.2946 0 41.3579 0L 49.7833 0C 51.6556 0 52.8019 0.929186 53.2222 2.78756L 58.0367 22.3573C 58.3424 23.6089 58.6863 25.4483 59.0684 27.8756L 59.8135 27.8756C 59.8517 27.6859 59.9854 26.9084 60.2147 25.5431C 60.4821 24.1778 60.6923 23.1159 60.8451 22.3573L 65.6023 2.78756C 66.0608 0.929186 67.2454 0 69.1559 0Z"/>
<path id="path2_fill" d="M 67.7955 12.2063C 73.0704 23.833 65.1581 36.5048 44.1977 45.2574C 22.8209 53.8795 7.27406 49.8297 1.72163 37.6805C -3.96961 25.1394 4.63667 13.1208 24.7642 5.02126C 46.4187 -3.73142 61.8267 -0.857404 67.7955 12.2063ZM 60.9938 14.5577C 57.2459 6.32761 45.1694 6.58884 29.0674 13.1207C 13.5206 19.3913 4.91429 27.2295 8.80099 35.7209C 12.1324 43.0366 24.209 43.8204 40.1722 37.4192C 56.6907 30.8874 64.4641 22.0041 60.9938 14.5577Z"/>
<path id="path3_fill" d="M 9.57793 14.762L 9.57793 14.8926L 17.3513 25.4742L 10.5496 27.9563L 0.83283 14.6314L 7.92145e-13 7.18503L 68.5725 6.99416e-15L 69.5441 8.36072L 9.57793 14.762Z"/>
<path id="path4_fill" d="M 68.2272 35.7897C 63.7853 47.8083 48.9326 52.1194 27.2781 45.3263C 5.34599 38.1412 -3.39907 25.3388 1.18168 12.9283C 5.90125 0.12585 20.8928 -3.40133 41.7144 3.39179C 63.7853 10.5768 73.2244 22.3341 68.2272 35.7897ZM 61.5643 33.3076C 64.6182 24.9469 55.5955 17.37 38.9382 12.0138C 22.8361 6.78836 10.8984 7.18026 7.70576 15.8023C 4.92955 23.3792 13.397 31.6094 29.7767 36.8349C 46.7116 42.5829 58.6493 41.0152 61.5643 33.3076Z"/>
<path id="path5_fill" d="M 13.4647 10.451L 13.3258 10.5816L 4.0255 19.8568L 0 14.1088L 11.7989 2.35149L 19.2947 1.13478e-13L 41.2268 61.6607L 32.6205 64.2734L 13.4647 10.451Z"/>
<path id="path6_fill" d="M 12.465 63.3947C -0.0279604 58.6917 -3.91464 44.3217 4.414 24.3342C 13.1591 4.08548 27.1789 -3.49147 40.2272 1.47274C 53.553 6.56758 56.6069 20.807 48.417 40.0106C 39.5331 60.5206 26.6237 68.6201 12.465 63.3947ZM 15.5189 57.1241C 24.2639 60.39 32.7314 52.2905 39.2555 36.8754C 45.6408 22.1134 45.7796 10.8786 36.7569 7.3514C 28.8447 4.34675 19.6832 11.9237 13.2979 26.9469C 6.35734 42.754 7.46784 54.1194 15.5189 57.1241Z"/>
<path id="path7_fill" d="M 46.224 10.451L 46.0851 10.3204L 33.4533 5.48677L 37.7564 -1.08258e-13L 53.5809 6.00931L 58.7169 11.7573L 5.82998 53.4305L 1.16108e-13 46.8987L 46.224 10.451Z"/>
<path id="path8_fill" d="M 0.576089 30.6964C -2.61656 18.4166 7.51658 7.05118 29.5875 1.8257C 52.2136 -3.39978 66.7888 3.00145 70.1202 15.8039C 73.5905 28.9982 62.9021 39.5798 41.664 44.544C 18.8991 49.7695 4.18517 44.6746 0.576089 30.6964ZM 7.79426 29.5207C 10.0152 38.1428 21.953 39.841 39.0267 35.9219C 55.5452 32.1334 65.4007 25.7323 63.0409 16.849C 60.9588 9.14137 49.1598 6.39799 32.3637 10.3171C 14.8735 14.1056 5.7121 21.5519 7.79426 29.5207Z"/>
<path id="path9_fill" d="M 60.7992 13.0637L 60.7992 12.9331L 55.6632 1.04516L 62.8813 1.52247e-12L 69.4054 14.8926L 68.5725 22.339L 1.33904e-12 15.8071L 0.832915 7.44632L 60.7992 13.0637Z"/>
<path id="path10_fill" d="M 1.69353 11.731C 6.69071 -0.0263146 21.8211 -3.68413 43.198 4.15408C 64.7136 12.3842 72.7646 25.5785 67.4898 37.8584C 62.0762 50.5302 46.9459 53.2736 26.5407 45.566C 4.7474 37.2053 -3.99771 25.056 1.69353 11.731ZM 8.21765 14.7357C 4.74738 22.9659 13.3536 30.9347 29.7333 37.0746C 45.4189 43.0839 57.3566 43.2146 61.1045 34.7232C 64.2971 27.2769 56.2461 18.6548 40.2829 12.6455C 23.6256 6.11364 11.4103 7.02815 8.21765 14.7357Z"/>
<path id="path11_fill" d="M 6.68899 4.96931C 16.4057 -3.78337 31.8137 -1.17062 47.7769 14.3752C 63.7402 30.1823 65.1283 45.4668 54.9951 54.4807C 44.4455 63.8866 29.5928 60.49 14.3236 45.4668C -1.77847 29.3984 -4.27706 14.7671 6.68899 4.96931ZM 11.4085 10.1948C 4.60678 16.3347 8.90994 26.9163 20.9865 38.9349C 32.6466 50.5616 43.4738 55.3952 50.5531 49.1246C 56.6608 43.6378 53.1906 32.6644 41.3917 20.7764C 29.1763 8.36591 17.655 4.5774 11.4085 10.1948Z"/>
<path id="path12_fill" d="M 35.3968 50.5565L 35.6743 50.5565L 43.4478 39.9749L 48.1673 45.2004L 38.4505 58.3947L 31.3712 61.7913L -1.35144e-13 3.91911L 8.05105 0L 35.3968 50.5565Z"/>
<path id="path13_fill" d="M 18.1295 0.335388C 31.3165 -2.01608 42.8378 8.04297 47.2798 29.0755C 51.5829 50.6306 44.0871 64.0862 30.206 66.4377C 16.0474 68.9198 5.3589 58.4688 1.33339 38.0894C -2.96975 16.5343 3.27675 3.07876 18.1295 0.335388ZM 19.1012 7.12845C 9.80087 8.82673 7.44108 19.9309 10.6337 36.1299C 13.8264 51.8063 20.0729 61.3428 29.6508 59.6445C 37.9795 58.2075 41.4497 47.234 38.2571 31.1657C 35.0644 14.7054 27.7075 5.69144 19.1012 7.12845Z"/>
<path id="path14_fill" d="M 9.57793 57.219L 9.85557 57.3497L 22.3485 52.1242L 23.5978 58.9172L 7.91219 65.3185L 1.80388e-13 64.7959L 5.27479 0L 14.2975 0.653185L 9.57793 57.219Z"/>
<path id="path15_fill" d="M 37.6905 1.16229C 50.4611 5.21204 55.1807 19.1902 48.2402 39.7002C 40.8832 60.4715 27.2797 68.7016 13.9539 64.5212C 0.211629 60.2102 -3.53627 46.1014 3.40427 26.5058C 10.7612 5.6039 23.2542 -3.41 37.6905 1.16229ZM 35.0531 7.56345C 26.0304 4.68944 18.257 13.3115 12.7046 29.1186C 7.29098 44.2724 7.84624 55.5073 17.0077 58.3813C 25.0588 60.8634 33.8038 52.8945 39.2175 37.4794C 45.0475 21.411 43.243 10.0456 35.0531 7.56345Z"/>
<path id="path16_fill" d="M 12.493 50.9484L 12.6317 51.079L 26.0964 52.7773L 23.459 59.1785L 6.52408 56.9577L -7.1316e-13 52.6467L 40.3939 -4.7765e-13L 47.7509 4.96419L 12.493 50.9484Z"/>
<path id="path17_fill" d="M 59.7118 7.0204C 68.4568 16.6875 64.9866 30.927 47.7741 45.1664C 30.1451 59.4058 14.043 59.9283 4.88151 49.9999C -4.55762 39.6796 -0.115647 25.7015 16.5416 12.2459C 34.1706 -2.12418 49.7174 -3.82246 59.7118 7.0204ZM 53.8817 11.2008C 47.7741 4.40768 36.2527 8.06547 22.9269 18.9083C 10.0175 29.3593 4.32628 39.1571 10.7116 46.2115C 16.264 52.2208 28.0629 49.6081 41.2499 39.0265C 54.9922 27.9223 59.573 17.3407 53.8817 11.2008Z"/>
<path id="path18_fill" d="M 11.9377 33.443L 12.0765 33.5737L 23.3202 40.8894L 17.7678 45.4616L 3.74789 36.3171L 2.76077e-13 29.6546L 61.4931 2.86247e-13L 65.6575 7.57693L 11.9377 33.443Z"/>
<path id="path19_fill" d="M 70.1027 15.5662C 73.4342 27.8461 63.4398 39.2115 41.3689 44.6983C 18.8815 50.0544 4.1676 43.9145 0.697329 31.1121C -2.91175 17.9177 7.63787 7.33611 28.8759 2.11064C 51.6409 -3.24548 66.3548 1.71871 70.1027 15.5662ZM 63.0234 16.8726C 60.6636 8.25056 48.7259 6.6829 31.6521 10.7326C 15.1337 14.6518 5.41689 21.1836 7.91548 30.0669C 9.99764 37.7745 21.9354 40.2566 38.5927 36.3375C 56.0828 32.4184 65.1055 24.8415 63.0234 16.8726Z"/>
<path id="path20_fill" d="M 9.0227 11.2348L 9.16152 11.3654L 16.1021 22.3389L 9.16152 24.4291L 0.416436 10.5816L 1.16401e-13 3.13528L 68.8501 -3.81462e-13L 69.2666 8.49136L 9.0227 11.2348Z"/>
<path id="path21_fill" d="M 69.0691 33.829C 65.3212 45.9783 50.6072 51.0731 28.5363 45.1944C 6.18779 39.0545 -3.11252 26.644 0.912989 13.9722C 4.9385 0.908501 19.7912 -3.27186 40.8905 2.60681C 63.3778 8.74674 73.3722 20.1122 69.0691 33.829ZM 62.2673 31.6082C 64.9047 23.1168 55.4656 16.0624 38.6695 11.3595C 22.4287 6.9178 10.4909 7.83226 7.71471 16.5849C 5.35492 24.2925 14.2388 32.1307 30.7573 36.703C 47.831 41.5366 59.7687 39.4464 62.2673 31.6082Z"/>
<path id="path22_fill" d="M 7.49579 11.1041L 7.49579 11.3654L 8.60628 24.0372L 1.38811 22.9921L -2.83797e-13 6.92374L 3.19265 8.07126e-13L 66.3515 26.1274L 62.7425 33.9656L 7.49579 11.1041Z"/>
<path id="path23_fill" d="M 62.6521 45.9685C 55.2951 56.6807 39.7483 57.4646 20.4536 45.9685C 0.881277 34.0805 -4.2547 19.7105 3.37989 8.60636C 11.1533 -2.75906 26.7001 -2.88971 45.1619 8.34507C 64.873 20.3637 70.9807 33.9499 62.6521 45.9685ZM 56.822 42.0494C 61.958 34.6031 55.0175 25.3279 40.3035 16.3139C 26.006 7.69189 14.3459 5.34042 9.07113 13.048C 4.49038 19.7105 10.5981 29.6389 25.1732 38.5222C 40.0259 47.6668 52.1024 48.8425 56.822 42.0494Z"/>
<path id="path24_fill" d="M 10.1332 11.888L 9.99439 12.0186L 6.3853 24.2985L 0 20.9019L 4.58074 5.48677L 9.99439 -1.38229e-13L 60.105 44.8085L 53.8585 50.9484L 10.1332 11.888Z"/>
<path id="path25_fill" d="M 48.5502 59.2024C 37.4454 66.3874 22.7314 61.5538 9.5444 44.0485C -3.64262 26.0206 -2.53212 10.8667 8.98917 3.42039C 20.9269 -4.28719 35.0856 1.19958 47.5786 18.1824C 60.9044 36.3409 61.0432 51.1029 48.5502 59.2024ZM 44.8024 53.3237C 52.5758 48.2289 49.9384 37.2553 39.944 23.5385C 30.2272 10.3441 20.5105 4.07357 12.4594 9.29905C 5.5189 13.8713 7.04583 25.2368 16.9014 38.5617C 26.8958 52.5399 37.5842 58.0266 44.8024 53.3237Z"/>
<path id="path26_fill" d="M 13.0482 10.8429L 12.9094 10.9735L 4.58074 21.0326L 0 15.6764L 10.5496 3.00467L 17.7678 -1.29107e-13L 45.6687 59.3092L 37.3401 62.8364L 13.0482 10.8429Z"/>
<path id="path27_fill" d="M 33.4515 65.8955C 20.4033 69.1615 8.32673 59.8862 2.21906 39.115C -3.74981 17.9518 2.77427 4.10426 16.3777 0.707696C 30.2588 -2.8195 41.7801 6.97828 47.3325 26.9657C 53.4402 48.2596 48.1654 62.2377 33.4515 65.8955ZM 32.0634 59.233C 41.2249 57.0122 42.7518 45.6468 38.3098 29.7091C 34.0067 14.2939 27.0662 5.14933 17.6271 7.50079C 9.43722 9.46035 6.79981 20.6951 11.2418 36.5022C 15.5449 52.7012 23.5959 61.1926 32.0634 59.233Z"/>
<path id="path28_fill" d="M 25.7674 67.0817C 12.3028 67.9961 2.16959 56.892 0.226237 35.4675C -1.5783 13.6512 7.5832 1.11001 21.6031 0.0649133C 36.0394 -0.980182 45.3397 10.6465 47.0054 31.1565C 48.81 53.2341 40.8978 66.0366 25.7674 67.0817ZM 25.6286 60.2886C 35.0677 59.6354 38.8156 48.7925 37.4275 32.3322C 36.1782 16.3945 31.0422 6.20483 21.3254 6.98866C 12.858 7.64184 8.13842 18.0928 9.52653 34.4224C 10.637 51.1439 17.0223 60.9417 25.6286 60.2886Z"/>
<path id="path29_fill" d="M 13.881 8.09947L 13.6035 8.09947L 0.97165 12.9331L 1.03599e-14 6.13991L 15.8244 2.53143e-13L 23.7366 0.78383L 16.5185 65.4491L 7.49577 64.5347L 13.881 8.09947Z"/>
<path id="path30_fill" d="M 14.7769 65.0747C 1.86746 61.5475 -3.54611 47.7 2.42275 27.0594C 8.80805 6.02682 21.9951 -2.85646 35.4597 0.801373C 49.3408 4.58985 53.7827 18.4373 47.8139 38.2942C 41.4286 59.588 29.352 68.9938 14.7769 65.0747ZM 17.1367 58.6735C 26.1594 61.1556 33.6552 52.2723 38.5135 36.204C 43.2331 20.7888 42.1226 9.68467 32.8223 7.07193C 24.6324 4.8511 16.3038 13.2119 11.5842 28.8883C 6.44823 45.2179 8.80801 56.4527 17.1367 58.6735Z"/>
<path id="path31_fill" d="M 25.8188 7.05439L 25.68 6.92374L 12.0765 7.57693L 13.4647 0.78379L 30.5384 5.07685e-13L 37.7565 3.26592L 8.18987 61.9219L -1.26966e-13 58.2641L 25.8188 7.05439Z"/>
<path id="path32_fill" d="M 8.41608 58.3114C -2.68878 51.1264 -3.24401 36.495 9.38777 18.5978C 22.436 0.439239 37.8439 -4.00243 49.504 3.44388C 61.4417 11.0208 61.1641 25.6522 48.81 42.7656C 35.4841 60.9242 20.909 66.4109 8.41608 58.3114ZM 12.7192 52.9553C 20.4926 57.9195 30.6258 51.6489 40.4813 37.932C 50.0593 24.7377 52.8355 13.7642 44.6456 8.66936C 37.5663 4.2277 27.0167 9.71446 17.3 23.1701C 7.028 37.0176 5.50102 48.383 12.7192 52.9553Z"/>
<path id="path33_fill" d="M 40.9492 9.40588L 40.8104 9.27523L 27.6234 6.00931L 31.0936 -1.60088e-13L 47.6121 4.04975L 53.581 9.14459L 6.6629 56.8271L 6.60674e-13 50.9484L 40.9492 9.40588Z"/>
<path id="path34_fill" d="M 4.1594 48.2633C -4.16924 38.3349 -0.143717 24.0955 17.6241 10.6399C 35.8083 -2.94636 51.9103 -2.94636 60.6554 7.37396C 69.6781 17.9556 64.6809 31.8031 47.6071 44.6055C 29.2841 58.3224 13.7373 59.3675 4.1594 48.2633ZM 10.1282 44.3442C 15.9583 51.268 27.6184 48.1327 41.3607 37.8124C 54.6865 27.8839 60.6553 18.2168 54.6865 11.0318C 49.4116 4.7612 37.474 7.11268 24.0093 17.1717C 9.71181 27.4921 4.71463 37.8124 10.1282 44.3442Z"/>
<path id="path35_fill" d="M 52.4704 11.7573L 52.3317 11.496L 40.8104 4.7029L 46.0852 3.11065e-13L 60.5215 8.4914L 64.4082 15.0233L 4.44196 47.1599L -3.04736e-13 39.8443L 52.4704 11.7573Z"/>
<path id="path36_fill" d="M 0.924114 33.5552C -3.1014 21.406 6.06009 9.518 27.7146 2.85551C 49.9243 -3.80697 64.9159 1.67975 69.219 14.2209C 73.6609 27.154 63.8054 38.3888 42.845 44.6593C 20.4964 51.3218 5.50487 47.1414 0.924114 33.5552ZM 7.86465 31.8569C 10.7797 40.3483 22.7174 41.2628 39.5135 36.1679C 55.7543 31.3344 65.0546 24.2799 62.1396 15.5273C 59.5022 7.95033 47.5645 5.99077 31.0461 10.955C 13.9723 15.9192 5.22725 24.0187 7.86465 31.8569Z"/>
<path id="path37_fill" d="M 59.5498 13.1943L 59.411 12.9331L 51.0823 2.74338L 57.8841 -1.4952e-13L 68.2949 12.8024L 69.5442 20.2487L 1.38811 30.6997L -7.92145e-13 22.2083L 59.5498 13.1943Z"/>
<path id="path38_fill" d="M 0.00452948 22.2202C -0.273092 9.54846 12.2199 0.665149 35.1236 0.0119645C 58.305 -0.379946 71.2144 8.89531 71.4921 22.0896C 71.7697 35.6759 58.9991 43.7754 36.9281 44.1673C 13.3303 44.5592 0.282151 36.5903 0.00452948 22.2202ZM 7.2227 22.4815C 7.36152 31.3649 18.6051 35.5452 36.2341 35.1533C 53.169 34.8921 64.2739 30.7117 64.1351 21.5671C 63.9963 13.5982 53.0302 8.50343 35.8177 8.89534C 17.7723 9.02598 7.08389 14.382 7.2227 22.4815Z"/>
<path id="path39_fill" d="M 60.9379 13.0637L 60.9379 12.8024L 56.0796 0.914395L 63.2977 -1.24145e-12L 69.4054 15.0233L 68.4337 22.4695L 6.69519e-13 14.3701L 1.11047 6.00927L 60.9379 13.0637Z"/>
<path id="path40_fill" d="M 0.862815 14.2437C 4.33308 1.96383 19.047 -3.26164 41.1179 2.09448C 63.6053 7.84251 73.0444 20.1224 69.4353 32.7942C 65.6875 45.8579 50.9736 50.2995 29.7355 44.9434C 6.97056 39.1954 -3.1627 27.9606 0.862815 14.2437ZM 7.66457 16.3339C 5.16598 24.956 14.744 31.7491 31.8177 36.1908C 48.1973 40.3712 60.135 39.326 62.6336 30.4427C 64.8546 22.7351 55.8319 15.0276 39.1746 10.8472C 21.8233 6.14424 9.88555 8.49572 7.66457 16.3339Z"/>
<path id="path41_fill" d="M 58.9946 22.2083L 59.1334 21.9471L 57.8841 9.27527L 65.1023 10.3204L 66.6292 26.2581L 63.4365 33.1818L 5.0499e-13 7.83822L 3.47027 3.6861e-13L 58.9946 22.2083Z"/>
<path id="path42_fill" d="M 3.18098 8.88624C 10.1215 -1.95663 25.6683 -3.3936 45.3794 7.44927C 65.3681 18.684 70.9206 32.9235 63.8413 44.2889C 56.4843 55.9156 40.9375 56.4381 22.1981 45.8565C 1.9317 34.4911 -4.59242 21.1661 3.18098 8.88624ZM 9.14982 12.6747C 4.29145 20.2517 11.5096 29.3963 26.6399 37.8877C 41.2151 46.1178 53.014 48.0774 58.0112 40.1085C 62.3144 33.3154 55.929 23.5176 41.0763 15.1568C 25.8071 6.40412 13.5918 5.62035 9.14982 12.6747Z"/>
<path id="path43_fill" d="M 52.6092 35.6639L 52.6092 35.4026L 55.2466 22.8615L 61.9095 25.7355L 58.7169 41.5425L 53.7198 47.4212L 5.77636e-13 6.53185L 5.69121 0L 52.6092 35.6639Z"/>
<path id="path44_fill" d="M 6.85927 4.8299C 16.7148 -3.79214 32.1228 -1.04873 47.8084 14.4971C 63.6329 30.5654 64.8821 45.7193 54.6101 54.6026C 44.0605 63.8779 29.069 60.3506 14.0774 45.1968C -1.88578 29.1284 -4.24558 14.497 6.85927 4.8299ZM 11.44 10.0554C 4.49948 16.0647 8.80259 26.7769 20.8791 38.7955C 32.4004 50.5528 43.2277 55.3864 50.307 49.1159C 56.5535 43.6291 53.222 32.6556 41.4231 20.7676C 29.2077 8.35712 17.8253 4.43799 11.44 10.0554Z"/>
<path id="path45_fill" d="M 41.782 46.6374L 41.9209 46.5068L 48.1673 35.0108L 53.5809 39.5831L 45.8075 53.9531L 39.2834 58.1335L 0 4.83358L 7.49581 -4.9124e-13L 41.782 46.6374Z"/>
<path id="path46_fill" d="M 11.9391 1.90696C 24.0156 -3.71043 37.8967 3.08266 48.1687 22.2863C 58.4407 41.8818 54.9704 56.7745 42.4775 62.6531C 29.5681 68.6624 16.2422 61.2161 6.52545 42.6657C -3.88536 22.8089 -1.66435 8.17753 11.9391 1.90696ZM 14.7153 8.17752C 6.24786 12.0966 7.08069 23.4621 14.8541 38.3547C 22.3499 52.7248 31.0949 60.3016 39.84 56.2519C 47.4746 52.7247 47.6135 41.2287 39.9789 26.728C 32.2055 11.4435 22.4887 4.51968 14.7153 8.17752Z"/>
<path id="path47_fill" d="M 14.1721 1.11477C 26.8038 -3.19625 39.8521 5.03391 47.7643 25.152C 55.6765 45.7926 50.5405 60.1627 37.3535 64.6044C 23.75 69.1767 11.5347 60.424 4.0389 40.959C -3.87331 20.3184 0.0133687 5.94834 14.1721 1.11477ZM 16.2542 7.64662C 7.37034 10.6513 6.81514 22.0167 12.9228 37.5625C 18.7529 52.5858 26.5262 61.0771 35.6877 57.9419C 43.7387 55.1985 45.1269 43.8331 39.2969 28.5485C 33.328 12.6108 24.4441 4.90324 16.2542 7.64662Z"/>
<path id="path48_fill" d="M 24.7083 54.7368L 24.986 54.7368L 34.8415 45.8535L 38.4505 51.8628L 26.0964 62.967L 18.323 64.9265L -1.30116e-14 2.35145L 8.7451 -2.39412e-13L 24.7083 54.7368Z"/>
<path id="path49_fill" d="M 20.0692 0.150503C 33.395 -1.41714 44.2223 9.29512 47.1373 30.7196C 49.9135 52.4053 41.446 65.3384 27.565 67.0367C 13.2675 68.7349 3.2731 57.5002 0.635697 36.9901C -2.27933 14.9125 4.93883 1.84878 20.0692 0.150503ZM 20.4856 6.94364C 11.0465 7.98874 7.85384 18.9622 10.0748 35.4225C 12.157 51.2296 17.7094 61.158 27.4261 60.1129C 35.8936 59.1985 40.0579 48.3556 37.9758 32.2872C 35.8936 15.4351 29.0919 5.89855 20.4856 6.94364Z"/>
<path id="path50_fill" d="M 9.30033 56.9578L 9.43915 56.9578L 21.6545 51.2097L 23.1814 58.0029L 7.91223 65.1879L 7.95234e-13 64.9266L 1.94338 -1.52393e-12L 10.9661 0.26129L 9.30033 56.9578Z"/>
<path id="path51_fill" d="M 30.9387 0.355283C 44.2645 2.57611 51.205 15.7704 47.4572 36.9336C 43.4316 58.4887 31.3551 68.5478 17.6129 66.3269C 3.31534 63.9755 -2.65351 50.6505 1.09438 30.2712C 5.11989 8.4548 15.9471 -2.12682 30.9387 0.355283ZM 29.2729 7.01782C 19.9726 5.45017 13.5873 15.1173 10.5335 31.4469C 7.61847 47.254 9.83944 58.2275 19.5562 59.7951C 27.8848 61.1015 35.2418 51.9569 38.1568 36.0192C 41.4883 19.2977 37.8792 8.32418 29.2729 7.01782Z"/>
<path id="path52_fill" d="M 11.2436 56.6964L 11.5213 56.6964L 24.8471 54.3449L 24.4306 61.2687L 7.63459 64.1427L 2.52342e-13 61.9219L 21.0992 7.3333e-13L 29.7055 2.61274L 11.2436 56.6964Z"/>
<path id="path53_fill" d="M 42.9011 2.07767C 55.1165 7.43378 58.0315 21.9345 48.5924 41.3994C 38.7368 61.2562 24.1617 67.9187 11.5299 62.3013C -1.51827 56.5533 -3.60044 42.0526 5.83869 23.3715C 15.6942 3.51465 29.1589 -4.06227 42.9011 2.07767ZM 39.4309 8.08694C 30.8246 4.29846 21.9407 12.0061 14.4449 26.8987C 7.22677 41.3994 6.25509 52.5035 15.139 56.4226C 22.7736 59.8192 32.4903 52.7648 39.8473 38.1334C 47.6207 22.9795 47.3431 11.4835 39.4309 8.08694Z"/>
<path id="path54_fill" d="M 12.2153 52.5161L 12.3541 52.6467L 25.9576 53.5612L 23.7366 60.093L 6.6629 58.9172L 1.80964e-13 54.9981L 36.646 0L 44.2806 4.57229L 12.2153 52.5161Z"/>
<path id="path55_fill" d="M 53.0025 4.49567C 63.5521 12.4645 62.858 27.2265 48.6993 44.0787C 34.1242 61.0615 18.2998 64.458 7.47255 56.2279C -3.77112 47.7365 -2.24421 33.2357 11.4981 17.1674C 26.212 -0.076689 41.2036 -4.38765 53.0025 4.49567ZM 48.1441 9.59046C 40.7871 3.97307 30.2375 9.45981 19.1326 22.3929C 8.44422 34.8034 4.83514 45.5157 12.4697 51.2637C 19.1326 56.2279 30.2375 51.525 41.0647 38.8532C 52.4472 25.9201 54.9458 14.6853 48.1441 9.59046Z"/>
<path id="path56_fill" d="M 57.1936 5.97252C 66.7715 14.9865 64.2729 29.4872 48.3097 44.7717C 31.7912 60.1869 15.828 61.8852 5.83363 52.4793C -4.29955 42.8122 -1.10691 28.7034 14.4399 14.072C 31.0972 -1.47377 46.5052 -4.08653 57.1936 5.97252ZM 51.78 10.5448C 45.1171 4.27424 34.0122 8.58526 21.5192 20.3426C 9.44271 31.5774 4.58434 41.8977 11.5249 48.4295C 17.4937 54.0469 29.1538 50.5198 41.3692 39.1543C 54.1398 27.1357 57.8877 16.2928 51.78 10.5448Z"/>
<path id="path57_fill" d="M 12.493 42.0651L 12.6318 42.3264L 25.1247 47.2906L 20.6828 52.7774L 4.99717 46.5067L -3.71698e-13 40.6281L 53.9974 0L 59.5498 6.66245L 12.493 42.0651Z"/>
<path id="path58_fill" d="M 64.0179 9.31459C 71.2361 20.0268 65.5448 33.7438 46.3889 45.3704C 26.8166 57.1278 10.7146 55.4294 3.21881 44.3253C -4.55459 32.8292 1.96951 19.6349 20.4313 8.5308C 40.2813 -3.22652 55.9669 -2.70401 64.0179 9.31459ZM 57.7714 12.5805C 52.6354 5.13421 40.8365 7.09381 25.9838 15.9771C 11.6863 24.5992 4.46811 33.4824 9.74291 41.3207C 14.3237 48.1138 26.4002 46.9381 40.9753 38.1854C 56.2445 29.4327 62.3522 19.5043 57.7714 12.5805Z"/>
<path id="path59_fill" d="M 11.3825 27.8257L 11.3825 28.0869L 21.6545 36.4477L 15.6856 40.3669L 2.77621 29.7853L -5.21579e-14 22.7309L 64.6858 1.57016e-12L 67.7396 7.9689L 11.3825 27.8257Z"/>
<path id="path60_fill" d="M 69.7976 15.0736C 73.4067 27.3535 63.6899 38.8496 41.7578 44.7282C 19.4093 50.6069 4.55655 44.5976 0.808656 31.9258C -3.07804 18.8621 7.19395 8.01921 28.432 2.40182C 50.9193 -3.3462 65.7721 1.35674 69.7976 15.0736ZM 62.7182 16.5106C 60.2197 7.88856 48.2819 6.58225 31.2082 11.0239C 14.8285 15.3349 5.2506 21.9974 7.888 30.8807C 10.109 38.5882 22.0467 40.8091 38.704 36.4981C 56.0553 32.1871 65.078 24.4795 62.7182 16.5106Z"/>
<path id="path61_fill" d="M 10.1332 18.4199L 10.1332 18.5505L 18.6006 28.6095L 11.9377 31.4836L 1.38811 18.8118L -1.98036e-13 11.496L 67.8784 1.46227e-13L 69.5442 8.3608L 10.1332 18.4199Z"/>
<path id="path62_fill" d="M 71.2796 20.1018C 72.3901 32.7736 60.4523 42.3101 37.6874 44.2697C 14.506 45.968 1.18015 37.4766 0.0696686 24.2822C -1.04082 10.696 11.1745 1.94329 33.1066 0.245007C 56.5656 -1.45327 70.1691 5.73178 71.2796 20.1018ZM 64.0614 20.2324C 63.3674 11.3491 51.8461 7.95262 34.3559 9.25899C 17.421 10.5654 6.59378 15.2683 7.42664 24.5435C 8.12069 32.5124 19.3644 36.8234 36.5769 35.6477C 54.4835 34.3413 64.7555 28.3319 64.0614 20.2324Z"/>
<path id="path63_fill" d="M 8.74508 8.75269L 8.74508 8.88334L 14.8528 20.3794L 7.7734 21.947L 5.82004e-14 7.57697L 0.277628 -1.95504e-14L 69.2666 1.43701L 68.9889 9.92842L 8.74508 8.75269Z"/>
<path id="path64_fill" d="M 70.8162 27.3547C 69.1504 39.8958 55.4082 47.0809 32.782 44.5988C 9.73944 41.8554 -1.50423 30.8819 0.161499 17.8182C 1.96604 4.36258 15.8471 -2.03864 37.6404 0.574096C 60.9606 3.44811 72.7595 13.2459 70.8162 27.3547ZM 63.7368 26.1789C 64.9861 17.2956 54.4365 11.8089 36.9463 9.71868C 20.1502 7.75913 8.49014 10.3719 7.24084 19.5165C 6.13036 27.4853 16.2635 33.8865 33.3373 35.9767C 51.2438 38.0669 62.6263 34.2784 63.7368 26.1789Z"/>
<path id="path65_fill" d="M 8.18983 10.1897L 8.18983 10.3203L 11.7989 22.7308L 4.44195 22.8615L -4.02845e-14 7.31568L 1.80454 -2.45575e-13L 68.9889 14.8926L 66.9068 23.1227L 8.18983 10.1897Z"/>
<path id="path66_fill" d="M 68.2383 36.051C 63.7963 48.0696 48.8048 52.3806 27.1503 45.4569C 5.21819 38.2718 -3.38807 25.3388 1.19268 12.9283C 5.91225 0.12585 20.9038 -3.40133 41.7254 3.39179C 63.9351 10.7075 73.2355 22.4648 68.2383 36.051ZM 61.5753 33.4383C 64.6292 25.0775 55.6065 17.5006 39.088 12.1444C 22.986 6.91896 11.1871 7.18023 7.8556 15.9329C 5.07939 23.5099 13.5468 31.74 29.7877 37.0961C 46.7226 42.7135 58.7991 41.1459 61.5753 33.4383Z"/>
<path id="path67_fill" d="M 7.35697 11.2347L 7.35697 11.3654L 8.05103 24.1678L 0.832862 22.8615L -9.1288e-15 6.7931L 3.33146 -7.16703e-13L 65.7963 27.5644L 62.0484 35.272L 7.35697 11.2347Z"/>
<path id="path68_fill" d="M 63.6576 44.4726C 56.717 55.3154 41.1702 56.7524 21.4591 45.9096C 1.47037 34.6748 -4.22085 20.4354 2.9973 9.20058C 10.3543 -2.42611 25.7623 -3.07928 44.6405 7.50231C 64.7681 18.8677 71.431 32.1927 63.6576 44.4726ZM 57.6887 40.6841C 62.5471 32.9765 55.3289 23.9626 40.0598 15.4712C 25.4846 7.24105 13.6857 5.41211 8.68853 13.2503C 4.3854 20.1741 10.7707 29.8412 25.7623 38.0714C 41.1702 46.9547 53.2468 47.7385 57.6887 40.6841Z"/>
<path id="path69_fill" d="M 9.43913 11.888L 9.30031 12.0186L 6.5241 24.5598L -4.32302e-14 21.5551L 3.47027 5.74804L 8.60626 2.54282e-13L 61.4932 41.8038L 55.6631 48.3357L 9.43913 11.888Z"/>
<path id="path70_fill" d="M 55.263 54.2484C 45.5463 63.1317 30.1383 60.6496 14.0362 45.3651C -2.20461 29.6886 -3.73151 14.5347 6.26286 5.39014C 16.6737 -4.14635 31.6652 -0.88042 46.9344 14.0122C 63.4529 29.6886 66.0903 44.32 55.263 54.2484ZM 50.5435 49.0229C 57.3452 42.883 52.7644 32.3014 40.5491 20.4134C 28.7502 8.91734 17.9229 4.21441 10.8436 10.6156C 4.73593 16.233 8.34502 27.0759 20.4216 38.8332C 32.7757 51.1131 44.297 54.7709 50.5435 49.0229Z"/>
<path id="path71_fill" d="M 11.3825 11.6267L 11.2437 11.7573L 5.69123 23.5147L -4.75631e-14 19.3343L 6.80172 4.57229L 13.0482 0L 55.8019 50.9484L 48.5838 56.3045L 11.3825 11.6267Z"/>
<path id="path72_fill" d="M 46.7663 60.4256C 35.3839 67.2187 20.8088 61.7319 8.4546 43.5734C -3.89955 25.023 -2.09503 9.86906 9.84269 2.9453C 22.058 -4.23973 36.0779 1.90021 47.738 19.4056C 60.231 38.0867 59.6757 52.8486 46.7663 60.4256ZM 43.2961 54.4163C 51.3471 49.7133 49.265 38.4786 39.9646 24.5004C 30.9419 10.9142 21.364 4.12105 13.1742 9.08526C 5.95602 13.2656 7.06649 24.7617 16.228 38.4786C 25.3895 52.8486 35.9391 58.7273 43.2961 54.4163Z"/>
<path id="path73_fill" d="M 12.9094 11.1041L 12.6318 11.2348L 4.71956 21.5551L -2.96772e-14 16.3296L 9.99439 3.26592L 17.2125 1.62283e-13L 47.3345 58.5253L 39.1446 62.1832L 12.9094 11.1041Z"/>
<path id="path74_fill" d="M 37.3097 64.8104C 24.678 69.1214 11.6297 60.8913 3.71752 40.6426C -4.19469 20.002 1.08013 5.63189 14.2671 1.19023C 27.8706 -3.38206 40.0859 5.37061 47.5817 24.8355C 55.4939 45.7374 51.6072 59.9769 37.3097 64.8104ZM 35.2276 58.2786C 44.1115 55.2739 44.6667 43.9085 38.6978 28.3627C 33.0066 13.3395 25.2332 4.84807 15.9329 7.85272C 7.88187 10.5961 6.35494 21.9615 12.185 37.246C 18.1538 53.1837 27.0377 61.022 35.2276 58.2786Z"/>
<path id="path75_fill" d="M 13.7423 9.92841L 13.4647 9.92841L 3.33145 18.5505L 0 12.5411L 12.6318 1.69828L 20.4052 2.77744e-14L 36.7848 63.0976L 28.0398 65.0572L 13.7423 9.92841Z"/>
<path id="path76_fill" d="M 28.1648 66.9527C 14.839 68.6509 4.01179 58.0693 0.680332 36.7755C -2.51232 15.0898 5.8163 2.02608 19.6974 0.197162C 33.9949 -1.63176 44.1281 9.34175 47.0431 29.8518C 50.2358 51.7988 43.2952 64.9931 28.1648 66.9527ZM 27.6096 60.1595C 36.9099 58.9838 39.9638 48.0103 37.604 31.55C 35.2442 15.743 29.5529 5.81456 19.8362 7.12093C 11.3687 8.16602 7.48206 19.0089 9.70303 35.0772C 12.0628 51.9294 19.0033 61.3353 27.6096 60.1595Z"/>
<path id="path77_fill" d="M 14.0199 8.4914L 13.8811 8.4914L 2.08216 15.0233L 0 8.36077L 14.8528 0.26127L 22.765 0L 25.2636 64.9266L 16.2409 65.1878L 14.0199 8.4914Z"/>
<path id="path78_fill" d="M 20.8046 66.9373C 7.33994 66.1535 -1.12754 53.743 0.121752 32.3185C 1.50986 10.5021 12.3371 -0.86329 26.357 0.0511683C 40.7933 0.83499 48.2891 13.5068 47.0398 34.1474C 45.5128 56.2251 35.935 67.8518 20.8046 66.9373ZM 21.6374 60.1442C 31.0765 60.6667 36.3513 50.477 37.323 33.8861C 38.2947 17.9484 34.8244 7.2362 25.1077 6.58302C 16.6402 6.06047 10.3938 15.9889 9.42209 32.1879C 8.03398 49.1707 12.8923 59.6216 21.6374 60.1442Z"/>
<path id="path79_fill" d="M 13.7423 7.96885L 13.4647 7.96885L 0.694054 12.1492L -3.27917e-13 5.35611L 16.1021 7.70106e-14L 24.0142 1.17573L 13.3259 65.3185L 4.30318 64.0121L 13.7423 7.96885Z"/>
<path id="path80_fill" d="M 15.4797 65.4353C 2.43151 62.3 -3.39856 48.7137 2.01506 27.8118C 7.7063 6.64863 20.6157 -2.6266 34.2192 0.639325C 48.2391 4.03589 53.0974 17.7528 47.8226 37.7402C 41.8537 59.1647 30.1937 68.8318 15.4797 65.4353ZM 17.7007 58.9034C 26.8622 61.1243 34.0804 51.9797 38.3835 35.9113C 42.5478 20.3655 41.1596 9.26137 31.7205 7.04054C 23.5307 5.08098 15.4797 13.703 11.1765 29.5101C 6.59578 45.7091 9.2332 56.8132 17.7007 58.9034Z"/>
<path id="path81_fill" d="M 19.9888 7.44631L 19.8499 7.31568L 6.38526 9.40586L 7.07931 2.4821L 23.8755 8.86025e-14L 31.5101 2.4821L 8.46742 63.7508L 0 61.0075L 19.9888 7.44631Z"/>
<path id="path82_fill" d="M 11.5259 62.4441C -0.68941 57.2186 -3.88206 42.7179 5.27945 23.1224C 14.8574 3.13495 29.2937 -3.65818 42.0643 1.82857C 55.2513 7.44596 57.4723 21.816 48.3108 40.6277C 38.7328 60.7458 25.407 68.4534 11.5259 62.4441ZM 14.8574 56.4348C 23.4637 60.0927 32.2087 52.3851 39.5657 37.2312C 46.6451 22.7305 47.3391 11.4957 38.4552 7.70724C 30.6818 4.44131 21.2428 11.4957 14.0246 26.3883C 6.39 41.6728 6.94521 53.0383 14.8574 56.4348Z"/>
<path id="path83_fill" d="M 32.6205 7.70759L 32.4817 7.57695L 18.8782 6.53185L 21.238 -8.54552e-14L 38.3117 1.30637L 44.9746 5.35612L 7.49573 59.9624L -1.96082e-13 55.3901L 32.6205 7.70759Z"/>
<path id="path84_fill" d="M 7.22172 56.1437C -3.3279 48.3055 -2.63384 33.5435 11.386 16.5607C 25.8224 -0.552719 41.6468 -3.94927 52.6128 4.28086C 63.8565 12.7723 62.4684 27.1423 48.7262 43.3413C 34.151 60.5854 19.1594 65.027 7.22172 56.1437ZM 12.0801 51.0489C 19.4371 56.5357 29.9867 51.0489 40.9528 38.1158C 51.5024 25.5747 55.1114 14.8624 47.4768 9.11442C 40.8139 4.15022 29.7091 8.85315 19.0206 21.6556C 7.77696 34.7193 5.27837 45.9541 12.0801 51.0489Z"/>
<path id="path85_fill" d="M 41.9208 9.66713L 41.782 9.5365L 28.595 6.00931L 32.3429 0L 48.7225 4.44165L 54.4137 9.66713L 6.52404 56.3045L 1.54589e-13 50.4259L 41.9208 9.66713Z"/>
<path id="path86_fill" d="M 4.58879 49.7152C -4.15628 40.0481 -0.547187 25.8087 16.6653 11.5692C 34.2943 -2.67019 50.5351 -3.19274 59.5578 6.8663C 68.9969 17.1866 64.555 31.1648 47.8978 44.4898C 29.9912 58.9905 14.4444 60.5581 4.58879 49.7152ZM 10.28 45.6655C 16.3877 52.4586 27.909 48.9314 41.2349 38.0885C 54.1443 27.6376 59.8355 17.8398 53.4502 10.7854C 47.8978 4.64548 36.0988 7.38885 22.9118 17.9704C 9.30837 28.8133 4.58876 39.3949 10.28 45.6655Z"/>
<path id="path87_fill" d="M 3.5294 46.1148C -4.244 35.7945 0.753171 21.8164 19.215 9.27523C 38.2321 -3.39655 54.3342 -2.48211 62.3852 8.36076C 70.7138 19.4649 65.0225 32.9205 46.9771 44.8085C 27.9601 57.4802 12.2745 57.7415 3.5294 46.1148ZM 9.63711 42.457C 15.0507 49.7727 26.8496 47.1599 41.2859 37.6234C 55.167 28.3482 61.8299 19.073 56.1387 11.6267C 51.2803 5.09483 39.2038 6.79311 25.0451 16.0683C 10.3311 25.7355 4.63992 35.7945 9.63711 42.457Z"/>
<path id="path88_fill" d="M 52.1929 11.6267L 52.054 11.4961L 40.5327 4.70294L 45.8075 7.01965e-13L 60.2439 8.4914L 64.2693 14.8926L 4.44196 47.4212L 6.97075e-13 40.1056L 52.1929 11.6267Z"/>
<path id="path89_fill" d="M 1.82705 38.7394C -3.86419 27.2434 3.77041 14.3103 24.3144 5.16572C 45.4136 -3.97886 61.0992 -0.451632 67.0681 11.567C 73.1758 23.8468 64.8471 36.1267 44.9972 44.8794C 23.6203 54.1546 8.21234 51.8031 1.82705 38.7394ZM 8.48995 36.2573C 12.5155 44.3568 24.4531 43.8343 40.5552 36.7799C 55.9632 30.1174 64.2919 22.0179 60.1276 13.6571C 56.5185 6.47209 44.4419 5.94958 28.7563 12.8733C 12.3766 19.9277 4.88087 28.811 8.48995 36.2573Z"/>
<path id="path90_fill" d="M 56.6347 12.5412L 56.6347 12.4105L 46.5016 3.78846L 52.6093 0L 65.241 10.7122L 67.8785 17.7666L 2.91499 39.7136L 0 31.7448L 56.6347 12.5412Z"/>
<path id="path91_fill" d="M 0.633197 31.2754C -2.69826 18.9955 7.15726 7.63003 29.2282 2.01264C 51.7155 -3.47411 66.4295 2.66585 70.0386 15.4683C 73.6476 28.6626 63.2368 39.3748 41.9988 44.6003C 19.2338 50.0871 4.5199 45.1229 0.633197 31.2754ZM 7.71251 29.969C 10.0723 38.591 22.0101 40.028 39.0838 35.8476C 55.4634 31.7979 65.1802 25.266 62.8204 16.3827C 60.7382 8.67513 48.8005 6.19305 32.0044 10.2428C 14.653 14.4232 5.49154 22.1308 7.71251 29.969Z"/>
<path id="path92_fill" d="M 59.5498 13.0637L 59.411 12.9331L 51.0823 2.74338L 57.8841 1.68062e-13L 68.2949 12.8024L 69.5441 20.1181L 1.52688 30.8303L 0 22.4696L 59.5498 13.0637Z"/>
<path id="path93_fill" d="M 0.0549638 24.0901C -0.916711 11.4183 11.0211 1.88187 33.786 0.183587C 56.9674 -1.38406 70.2932 7.23801 71.4037 20.3017C 72.5142 33.888 60.16 42.6406 38.2279 44.0776C 14.6301 45.7759 1.16545 38.3296 0.0549638 24.0901ZM 7.27314 23.9595C 7.96719 32.8428 19.3497 36.37 36.9787 35.1943C 53.9136 34.0185 64.7408 29.3156 64.0468 20.171C 63.4915 12.2022 52.2478 7.76055 34.8965 8.93628C 16.9899 9.85074 6.57909 15.86 7.27314 23.9595Z"/>
<path id="path94_fill" d="M 60.5215 13.1944L 60.5215 12.9331L 54.275 1.56766L 61.4931 1.51612e-12L 69.2666 14.3701L 68.9889 21.8164L 4.65603e-13 20.3794L 0.277638 11.888L 60.5215 13.1944Z"/>
<path id="path95_fill" d="M 0.180145 17.9427C 1.84587 5.40156 15.4493 -1.91414 38.0755 0.437328C 61.118 3.05007 72.5005 13.893 70.8348 26.9567C 69.169 40.4123 55.288 46.8135 33.4947 44.462C 10.1745 41.8493 -1.62439 32.1821 0.180145 17.9427ZM 7.25946 19.1185C 6.14897 28.0018 16.6986 33.4885 34.1888 35.4481C 51.1237 37.277 62.645 34.6642 63.7554 25.5196C 64.7271 17.5508 54.5939 11.2803 37.5202 9.32071C 19.7524 7.09988 8.36994 11.019 7.25946 19.1185Z"/>
<path id="path96_fill" d="M 60.7992 12.6718L 60.7992 12.5411L 57.0513 0.130605L 64.4082 2.86247e-13L 69.1278 15.4151L 67.3232 22.7308L -2.31918e-13 8.75269L 1.94338 0.391895L 60.7992 12.6718Z"/>
<path id="path97_fill" d="M 1.23433 12.9987C 5.53746 0.98011 20.3902 -3.59223 42.1835 3.07025C 64.2544 9.99401 72.9994 22.7965 68.6963 35.207C 64.1156 48.1401 49.2628 51.7978 28.3024 45.266C 5.95389 38.2116 -3.62405 26.585 1.23433 12.9987ZM 7.89723 15.4808C 4.84339 23.9722 14.0049 31.2879 30.801 36.5134C 46.903 41.6082 58.8408 41.0856 61.8946 32.333C 64.532 24.756 56.0646 16.6565 39.6849 11.4311C 22.6112 6.07494 10.6734 7.77318 7.89723 15.4808Z"/>
<path id="path98_fill" d="M 58.7169 23.384L 58.8558 23.2534L 57.8841 10.451L 65.1023 11.6267L 66.2127 27.6951L 62.8812 34.4882L -6.63979e-13 7.70761L 3.74791 5.41731e-14L 58.7169 23.384Z"/>
<path id="path99_fill" d="M 3.13074 9.02366C 9.93247 -1.94985 25.4793 -3.38684 45.3292 7.32539C 65.318 18.4295 71.148 32.5384 64.0687 44.0344C 56.7117 55.7918 41.3037 56.4449 22.4255 45.8633C 2.1591 34.6285 -4.64266 21.3035 3.13074 9.02366ZM 9.09958 12.8122C 4.38002 20.5197 11.5982 29.5337 26.8674 37.8945C 41.5814 45.994 53.2414 47.8229 58.2386 39.854C 62.5418 32.9303 56.0176 23.2631 41.0261 15.033C 25.6181 6.41096 13.5415 5.75776 9.09958 12.8122Z"/>
<path id="path100_fill" d="M 53.8585 33.5737L 53.9973 33.443L 55.9407 20.7712L 62.7424 23.384L 60.2438 39.3217L 55.5243 45.331L -8.55585e-13 6.79314L 5.41357 4.99739e-13L 53.8585 33.5737Z"/>
</defs>
</svg>
